<?xml version="1.0" encoding="iso-8859-1"?>
<!-- Uploaded to: SVG Repo, www.svgrepo.com, Generator: SVG Repo Mixer Tools -->
<svg height="800px" width="800px" version="1.1" id="Layer_1" xmlns="http://www.w3.org/2000/svg" xmlns:xlink="http://www.w3.org/1999/xlink" 
	 viewBox="0 0 512 512" xml:space="preserve">
<path style="fill:#82C8DB;" d="M289.77,7.898L256,503.557c42.115,0,76.255-34.141,76.255-76.255V7.898H289.77z"/>
<path style="fill:#A3DDE9;" d="M290.86,7.898H179.745v419.404c0,42.115,34.141,76.255,76.255,76.255
	c24.065,0,34.86-34.141,34.86-76.255l-13.072-85.787l13.072-85.787V7.898z"/>
<path style="fill:#146A8A;" d="M272.885,256.819L256,460.108c18.421-0.265,33.77-17.746,33.77-39.207V256.819H272.885z"/>
<g>
	<path style="fill:#2089B0;" d="M256,475.229c0.089,0,0.046,0,0-0.001C255.954,475.229,255.911,475.229,256,475.229z"/>
	<path style="fill:#2089B0;" d="M256,475.227c0.049-0.001,0.101-0.004,0-0.01C255.899,475.223,255.951,475.226,256,475.227z"/>
	<path style="fill:#2089B0;" d="M222.23,256.819v164.082c0,21.461,15.348,38.943,33.77,39.207
		c9.109-0.544,16.885-17.917,16.885-39.213V256.815L222.23,256.819z"/>
</g>
<path d="M354.043,0H157.957c-4.512,0-8.17,3.658-8.17,8.17s3.658,8.17,8.17,8.17h13.617v411.234
	C171.574,474.126,209.448,512,256,512s84.426-37.874,84.426-84.426V16.34h13.617c4.513,0,8.17-3.658,8.17-8.17S358.556,0,354.043,0z
	 M324.085,427.574c0,37.542-30.542,68.085-68.085,68.085c-37.542,0-68.085-30.544-68.085-68.085V16.34h136.17V427.574z"/>
<path d="M256,468.426c22.526,0,40.851-18.325,40.851-40.851v-69.447c0-4.512-3.657-8.17-8.17-8.17c-4.513,0-8.17,3.658-8.17,8.17
	v69.447c0,13.516-10.996,24.511-24.511,24.511c-13.516,0-24.511-10.995-24.511-24.511V264.17h49.021v61.277
	c0,4.512,3.657,8.17,8.17,8.17c4.513,0,8.17-3.658,8.17-8.17V256c0-4.512-3.657-8.17-8.17-8.17h-65.362
	c-4.512,0-8.17,3.658-8.17,8.17v171.574C215.149,450.1,233.474,468.426,256,468.426z"/>
</svg>